<svg version="1.1" id="layout" xmlns="http://www.w3.org/2000/svg" xmlns:xlink="http://www.w3.org/1999/xlink" viewBox="-28 82 423 203" preserveAspectRatio="xMidYMid meet" style="background-color:#fff;">
	<defs>
		<style type="text/css">
			<![CDATA[
				#layout svg {
					overflow: visible;
				}
			]]>
		</style>
	</defs>
	<svg id="top_text-wrapper" class="draggable" preserveAspectRatio="xMidYMax meet">
		<defs>
			<path id="text_curve" fill="none" stroke="magenta" stroke-width="1" d="m 50.581723,155.39503 a 205.56467,132.33899 0 0 1 264.268837,1e-5" />
		</defs>
		<text class="drag-target font_adjust">
			<textPath id="top_text" data-text-max="7" data-name="top_text" class="top_text text" xlink:href="#text_curve" startOffset="50%" fill="#040404" font-family="city_block" font-size="58.36px" letter-spacing="0" text-anchor="middle">FREMONT</textPath>
		</text>
	</svg>
	<svg id="bottom_text-wrapper" class="draggable" x="183.3" y="279" preserveAspectRatio="xMidYMin meet">
		<text id="bottom_text" data-name="bottom_text" data-text-max="10" class="bottom_text text drag-target" text-anchor="middle" fill="#040404" font-family="square" font-size="28.35px">FOOTBALL</text>
	</svg>
	<svg id="mascot-wrapper" viewBox="0 0 200 100" x="70px" y="145px" width="228px" height="111px">
		<svg id="mascot-1" class="draggable" viewBox="0 0 200 100" x="0" y="0" width="100%" height="100%">
			<svg xmlns="http://www.w3.org/2000/svg" xmlns:xlink="http://www.w3.org/1999/xlink" version="1.1" id="HAWK004" x="0px" y="0px" viewBox="59 112 260 75"  preserveAspectRatio="xMidYMid meet" xml:space="preserve" data-colorable="mascot">
			<path id="outline_23_" fill="#BDBDC0" d="M263.1,134.1c-0.1-0.2-0.2-0.4-0.4-0.5c-0.3-0.4-0.7-0.9-1.3-1.6c-0.5-0.6-1.1-1.3-1.6-2.1
				c1.8-2.3,3.1-5.2,3.9-8.6l0.8-4.1c0.2-1.1-0.1-2.2-0.8-3c-17.4-19.3-41.6-29.1-71.7-29.1c-24.1,0-51.8,6.1-84.5,18.7
				c-1.3,0.5-2.1,1.7-2.2,3c-0.1,1.3,0.6,2.6,1.8,3.3c2.3,1.3,4.5,2.6,6.8,3.9c4.5,2.6,9,5.2,13.7,7.7c-17.2,13.9-28.4,27.2-39.2,46.1
				c-0.6,1.1-0.6,2.4,0,3.5c0.6,1.1,1.8,1.7,3,1.7c27.7,0.1,38.6,2.4,62.1,17.8c1.8,1.2,3.7,2.5,5.6,3.7c8.8,5.9,18,12,28,15.8
				c6.1,2.3,12.4,3.5,18.8,3.5c13.2,0,23.8-4.9,29.5-7.6l0.5-0.2c1-0.5,1.7-1.3,1.9-2.4c0.2-1,0-2.1-0.7-3c-4.1-5.2-5.8-10.1-5.1-14.5
				c0.6-3.8,3.1-7.4,7.4-10.7c0.6,0.4,1.1,0.8,1.7,1.1c0.1,2.1-0.2,4.2-1.4,7.7c-0.4,1.2-0.2,2.5,0.7,3.5c0.7,0.7,1.6,1.2,2.6,1.2
				c0.3,0,0.5,0,0.8-0.1c7-1.7,12.9-4.1,18.9-10.5C275.3,164.9,275.4,149.6,263.1,134.1z"/>
			<path id="color-4_21_" fill="#027039" stroke='#027039' stroke-width='1.25' d="M211.5,123.4c-1-0.7-2-1.4-3-2.1C209.5,122,210.5,122.7,211.5,123.4z M205.7,102.4
				c-13.3-3-32.8-1.3-61.8,6.4c2.7,2,8.7,5.7,19.8,9.7c-19,7.4-35.5,20.6-51.3,41.1c-1.3,0.1-2.4,0.1-3.7,0.2
				c16.8-1.1,33.7,0.9,50.8,6.1c-5.3,1-10.4,2.6-15.4,4.8c11.1,6,21,13.6,30.8,19.7c3,1.9,6.3,2.4,9.8,1.6c3.5-0.9,6.2-2.8,8-5.9
				c2.6-4.2,6.1-7.8,10.7-10.9c-3,0.3-5.7,0.8-8.4,1.4c1.3-1.8,2.6-3.5,4.1-5.1c3-3.4,5.9-6.1,8.6-8c-4.2,0.3-8,1.3-12.6,2.5
				c-18.3,5-17.5-20-4.5-25c-5-1.6-9.2-4-11.7-7.3c1.5,0.4,4.6,1.1,8.5,1.8c-2.2-6.5,0.4-12.3,3.3-17c-4.7-1.6-10.1-2.2-16.9-1
				c12.5-10.4,24.5-3.6,34.9,3.5c-0.3-0.2-0.6-0.5-1-0.7C239.7,131.9,239.3,110,205.7,102.4z M215.9,126.4c-1.4-0.9-2.9-2-4.4-3
				C213,124.5,214.5,125.5,215.9,126.4z"/>
			<path id="color-5_10_" fill="#040404" d="M259.9,135.7c0.1,0,0.1,0.1,0.1,0.1c-0.9-1.1-3-3.8-4.9-6.1c2.6-2,4.3-5.1,5.1-9.1l0.8-4
				c-40.2-44.5-108-26.5-152.4-9.5c8.4,4.7,16.6,9.6,25,14.1c-19,14.7-31,28.3-42.4,48.4c27.8,0.1,39.5,2.3,64,18.3
				c10.1,6.6,21.1,14.8,32.9,19.2c21,7.9,38.4-0.7,46.2-4.3c-9-11.3-8.4-22.7,4.9-31.5c1.5,1,3.7,2.3,5.1,3.5c0.5,3.4,0.1,6.3-1.4,10.7
				c7.2-1.7,12.1-4.1,17.2-9.5C273.6,161.6,269.6,147.6,259.9,135.7z M199,171.6c-1.5,1.6-2.8,3.4-4.1,5.1c2.7-0.7,5.5-1.1,8.4-1.4
				c-4.6,3-8.2,6.7-10.7,10.9c-1.8,3-4.5,5-8,5.9c-3.4,0.8-6.7,0.3-9.8-1.6c-9.8-6.1-19.6-13.7-30.8-19.7c5-2.2,10.2-3.8,15.4-4.8
				c-17-5.2-33.9-7.3-50.8-6.1c9.6-16.3,27-32.7,40.6-40.5c-6.9-3.8-14-7.5-20.9-11.4c37.4-12.7,77.6-19.5,110.4-0.3
				c3.5,2,6.9,4.4,10.2,7.1c2.4,1.8,2,1.6,3.4,3.2c-1.2,5.3-5.7,6-8.4,6.4c-0.1-2.2-1.4-4.5-4.2-6.6c2.9,12.1-15,14.2-21.3,10.5
				c-0.8-0.5-1.7-1-2.6-1.6c0,0,0,0,0,0c-11.8-7.7-26.7-21.7-42.3-8.7c6.9-1.2,12.3-0.6,16.9,1c-2.9,4.7-5.5,10.5-3.3,17
				c-3.9-0.7-7.1-1.4-8.5-1.8c2.4,3.3,6.7,5.7,11.7,7.3c-13,4.9-13.8,30,4.5,25c4.5-1.3,8.4-2.2,12.6-2.5
				C204.9,165.5,202,168.2,199,171.6z M213.5,132.9c-1.1,1.6-2.8,2.9-5,3.4c-4,0.9-8-1.1-8.8-4.5c-0.5-2.1,0.3-4.2,1.8-5.9L213.5,132.9
				z M249.2,178.3v-0.2c1.4-25-33.9-28.1-52.3-29.1l-0.5-0.1l-3.5-0.2l1.8,1.3c-0.7,1.1-1.3,2.2-1.8,3.4c-0.2,0.5-0.1,1.1,0.3,1.4
				c0.4,0.4,0.9,0.5,1.4,0.2c2.8-1.4,5.9-2.4,9.4-2.8c1.8,0.1,3.2,0.2,3.6,0.3c17.2,1.8,30.2,6.5,35.2,15.2
				c-14.8-9.6-33.1-14.6-49.5-7.6c-0.7,0.3-1.6,0.3-2.6,0.1c-6.7-1.3-3-10.5,0.7-13c1.6-1.1,3.6-1.6,5.7-1.6
				c10.4,0.6,21.4,1.5,32.2,3.2h1.2l0.3-1.2c1.1-4.7,3.4-8.9,6.2-12.5c1-1.4,2.1-2.6,3.2-3.8c2.6-2.6,6.7-2.6,9.5-0.2
				C265.6,145.6,270.9,163.7,249.2,178.3z M246.7,141.5c0.5,0.7,0.8,1.5,0.9,2.2c0,0.7-0.3,1.4-0.8,1.7c-8.4,5-10.8,2-3.9-4.9
				c0.5-0.5,1.1-0.6,1.8-0.4C245.4,140.3,246.1,140.8,246.7,141.5z"/>
			<path id="color-3_22_" fill="#FFDC00" d="M249.7,131.1c-2.8-2.4-6.9-2.4-9.5,0.2c-1.1,1.1-2.2,2.4-3.2,3.8
				c-2.8,3.6-5.1,7.8-6.2,12.5l-0.3,1.2h-1.2c-10.7-1.7-21.8-2.6-32.2-3.2c-2.1-0.1-4.1,0.5-5.7,1.6c-3.8,2.4-7.4,11.7-0.7,13
				c0.9,0.2,1.9,0.2,2.6-0.1c16.4-7.1,34.7-2,49.5,7.6c-5-8.7-18-13.4-35.2-15.2c-0.4-0.1-1.8-0.1-3.6-0.3c-3.4,0.5-6.5,1.5-9.4,2.8
				c-0.5,0.3-1,0.2-1.4-0.2c-0.4-0.3-0.5-0.9-0.3-1.4c0.5-1.1,1.1-2.2,1.8-3.4l-1.8-1.3l3.5,0.2l0.5,0.1c18.3,1.1,53.7,4.2,52.3,29.1
				v0.2C270.9,163.7,265.6,145.6,249.7,131.1z M246.7,145.5c-8.4,5-10.8,2-3.9-4.9c0.5-0.5,1.1-0.6,1.8-0.4c0.7,0.2,1.4,0.7,2,1.4
				c0.5,0.7,0.8,1.5,0.9,2.2C247.5,144.5,247.3,145.1,246.7,145.5z"/>
			<path id="color-2_23_" fill="#FFFFFF" d="M201.5,125.9l12,7c-1.1,1.6-2.8,2.9-5,3.4c-4,0.9-8-1.1-8.8-4.5
				C199.1,129.6,199.9,127.5,201.5,125.9z"/>
			<path id="color-1_22_" fill="#FFFFFF" d="M112.3,159.6c-1.3,0.1-2.4,0.1-3.7,0.2c9.6-16.3,27-32.7,40.6-40.5
				c-6.9-3.8-14-7.5-20.9-11.4c37.4-12.7,77.6-19.5,110.4-0.3c3.5,2,6.9,4.4,10.2,7.1c2.4,1.8,2,1.6,3.4,3.2c-1.2,5.3-5.7,6-8.4,6.4
				c-0.1-2.2-1.4-4.5-4.2-6.6c2.9,12.1-15,14.2-21.3,10.5c-0.8-0.5-1.7-1-2.6-1.6c0,0,0,0,0,0c-2.6-1.7-5.5-3.8-8.4-5.8
				c32.2,11.3,31.8-10.6-1.8-18.2c-13.3-3-32.8-1.3-61.8,6.4c2.7,2,8.7,5.7,19.8,9.7C144.6,125.9,128.1,139.1,112.3,159.6z"/>
			</svg>
		</svg>
	</svg>
</svg>
