<svg version="1.1" id="layout" xmlns="http://www.w3.org/2000/svg" xmlns:xlink="http://www.w3.org/1999/xlink" data-colorable="special_text" viewBox="93 10 265 148" preserveAspectRatio="xMidYMid meet" style="background-color:#fff;">
	 <defs>
		<style type="text/css">
			<![CDATA[
			#layout svg {
					overflow: visible;
				}
				 @font-face {
					font-family: 'serpentine';
					src: url('http://richardsoncap.magentostaging.com/customizer/fonts/serpentine.ttf') format('truetype'),
						url('http://richardsoncap.magentostaging.com/customizer/fonts/serpentine_richardson.woff2') format('woff2'),
						url('http://richardsoncap.magentostaging.com/customizer/fonts/serpentine_richardson.woff') format('woff');
				    font-weight: normal;
					font-style: normal;
					}
			]]>
		</style>
</defs>

	<svg id="mascot-wrapper" viewBox="93 10 265 148" x="174.5px" y="-117px" width="233px" height="245px">
		<svg id="mascot-1" class="draggable" viewBox="0 0 200 100" x="0" y="0" width="100%" height="100%">
			<svg xmlns="http://www.w3.org/2000/svg" xmlns:xlink="http://www.w3.org/1999/xlink" version="1.1" id="mascot-1" x="0px" y="0px" width="228px" height="250px" viewBox="93 10 265 148"  preserveAspectRatio="xMidYMid meet" xml:space="preserve" data-colorable="mascot">
			<path id="color-1" fill="#BDBDC0" stroke="#BDBDC0" stroke-width="0px" d="M241.6,14.9c-1-0.6-2.3-0.1-1.6,1.1c1.8,3.5,4.4,8.5,5.6,11.9c1.6,4.1,1.6,9.1-0.3,19.7
	c-2.3,12.7-6.1,33-6.1,33l16.6-41.9c0,0,1-1.4,3.1-0.3c2,1,27.4,25.5,15.7,68.1C274.5,106.4,302.4,47.9,241.6,14.9L241.6,14.9z
	 M194.8,38.3c2-1,3.1,0.3,3.1,0.3l16.3,41.9c0,0-3.3-19.7-5.9-33c-2.1-10.6-2-15.6-0.3-19.7c1.3-3.3,3.8-8.4,5.6-11.9
	c0.7-1.2-0.7-1.7-1.6-1.1c-60.8,33-32.9,91.5-32.9,91.5C167.4,63.8,192.7,39.3,194.8,38.3L194.8,38.3z M220,65.5c0,0,14.3,0,14.4,0
	l0.7-2.4c0,0-2.6-1.5-6.2-1.8c0.1-1.3,0.3-2.6,0.4-4.4h4.9c0.1,0,0.1,0,0.2,0l0.6-2.3c0,0-2-1.3-5.3-1.7c0.2-1.7,0.3-2.6,0.4-4.5
	c0,0,4,0.1,4.1,0.1l0.6-2.3c0,0-1.8-1-4.4-1.5c0.1-1.5,0.2-2.5,0.2-4l3.4,0.1l0.6-2.2c0,0-1.5-0.9-3.8-1.4c0.1-1.5,0.1-2.3,0.1-3.7
	c0,0,2.7,0.1,2.8,0.1l0.6-2.1c0,0-1.4-0.8-3.5-1.2c0-0.3,0-0.5,0-0.8c-0.1-0.9-0.2-1.8-0.2-2.6l2.6,0.1l0.5-2c0,0-1.4-0.9-3.5-1.3
	c-0.2-0.9-0.3-1.6-0.3-2.4c0,0,2.9,0.1,3,0.1l0.5-1.9c0,0-1.7-0.9-4.2-1.3c-0.1-0.3-0.1-0.6-0.2-0.8h3.4l0.5-1.7
	c0,0-2.4-1.3-4.8-1.4c-0.8,0-1.2,0-1.8,0c-1.5,0.3-3.2,0.6-5,1.6l0.6,1.5h3.4c-0.1,0.2-0.1,0.5-0.2,0.8c-1.4,0.3-2.8,0.8-4.3,1.5
	l0.7,1.6l2.9-0.1c-0.1,0.8-0.2,1.5-0.3,2.5c-1.2,0.3-2.4,0.8-3.7,1.5l0.7,1.6l2.7-0.1c-0.1,0.9-0.2,1.7-0.3,2.6c0,0.3,0,0.5,0,0.9
	c-1.2,0.3-2.4,0.8-3.6,1.5l0.8,1.7h2.7c0,1.4,0.1,2.3,0.1,3.8c-1.3,0.3-2.6,0.9-4,1.6l0.9,1.9l3.3-0.1c0.1,1.5,0.1,2.6,0.3,4
	c-1.5,0.3-3.1,0.9-4.6,1.8l0.8,2l4-0.1c0.2,2,0.3,2.9,0.4,4.6c-1.7,0.3-3.6,0.9-5.5,2l0.9,2h5c0.2,1.8,0.3,3.2,0.4,4.4
	c-2,0.2-4.1,0.9-6.3,2.1L220,65.5z M184.8,113.9c2.9,4.8,4.9,7.9,8.5,11.7c4.9-7.9,11.6-20.4,33.3-21.2v-16
	C199.4,88.6,186.9,108.8,184.8,113.9L184.8,113.9z M228.3,104.4c21.8,0.8,28.4,13.2,33.4,21.2c3.6-3.8,5.5-6.9,8.5-11.7
	c-2-5-14.6-25.3-41.8-25.5V104.4z M230.6,148.9c-0.9,0-1.6-0.4-1.9-1.2c-0.2-0.7-1.3-6.7-1.4-7.6V140c0,0,0,0,0,0.1
	c0-0.1-0.1-0.1-0.1-0.1v0.2c-0.1,0.9-1.2,6.9-1.4,7.6c-0.3,0.8-0.8,1.1-1.6,1.2H224c-4.1-0.1-30.9-12.4-41.4-34.8
	c0,0,2,7.8,8.5,16.3c5.8,7.8,16.2,20.2,32.6,24.9c0,0,0.1,0,0.1,0.1c0.1,0,0.7,0.2,1.5,0.2c0.7-0.1,1.5-0.3,2.1-1
	c1.1,1.5,3.3,0.9,3.4,0.9c16.5-4.7,27-17.2,32.9-25c6.4-8.5,8.5-16.3,8.5-16.3C261.5,136.6,234.7,148.9,230.6,148.9L230.6,148.9z"/>
			</svg>
		</svg>
	</svg>


	<svg id="main_text-wrapper" class="draggable" x="226" y="100" preserveAspectRatio="xMidYMin meet">
		<text id="main_text" data-name="main_text" data-text-max="12" class="main_text text drag-target" fill="#48236E" font-family="serpentine" stroke-width="0px" font-size="46.7px" text-anchor="middle" letter-spacing="1">VIKINGS</text>
	</svg>

	<svg id="bottom_text-wrapper" class="draggable" x="226" y="127" preserveAspectRatio="xMidYMin meet">
		<text id="bottom_text" data-name="bottom_text" data-text-max="12" class="bottom_text text drag-target" fill="#48236E" font-family="serpentine" stroke-width="0px" font-size="19.3px" text-anchor="middle" letter-spacing="0.5">FOOTBALL</text>
	</svg>
</svg>
