<svg version="1.1" id="layout" xmlns="http://www.w3.org/2000/svg" xmlns:xlink="http://www.w3.org/1999/xlink" x="0px" y="0px"
	 viewBox="120 10 213.5 140.1" enable-background="new 0 0 453.5 170.1" xml:space="preserve" preserveAspectRatio="xMidYMid meet">

	 <defs>
		<style type="text/css">
			<![CDATA[
			#layout svg {
					overflow: visible;
				}
				 @font-face {
						font-family: 'pro_block';
						src:
						    url('http://richardsoncap.magentostaging.com/customizer/fonts/pro_block.ttf') format('truetype'),
						    url('http://richardsoncap.magentostaging.com/customizer/fonts/pro_block.woff2') format('woff2'),
						    url('http://richardsoncap.magentostaging.com/customizer/fonts/pro_block.woff') format('woff2');
						font-weight: regular;
					}
					@font-face {
				    font-family: 'heritage';
				    src: url('http://richardsoncap.magentostaging.com/customizer/fonts/BebasKai-Regular.otf') format('otf'),
				    	 url('http://richardsoncap.magentostaging.com/customizer/fonts/bebaskai-regular.woff2') format('woff2'),
				    	 url('http://richardsoncap.magentostaging.com/customizer/fonts/bebaskai-regular.woff') format('woff');
				    font-weight: normal;
				    font-style: normal;
				}
			]]>
		</style>
	</defs>

	<svg id="graphic-1-wrapper" viewBox="93 10 265 148" x="174.5px" y="-117px" width="233px" height="245px">
		<svg id="graphic-1" class="draggable" viewBox="0 0 200 100" x="0" y="0" width="100%" height="100%">
			<svg xmlns="http://www.w3.org/2000/svg" xmlns:xlink="http://www.w3.org/1999/xlink" version="1.1" id="graphic-1" x="0px" y="0px" width="228px" height="250px" viewBox="93 10 265 148"  preserveAspectRatio="xMidYMid meet" xml:space="preserve" data-colorable="mascot">
				<path id="color-1" fill-rule="evenodd" clip-rule="evenodd" fill="#040404" d="M226.7,147.2c-6.4-0.1-12.5-2-17.8-5.5
	c-28.2-18-55.3-39.7-76.8-65.5c-4.3-5.1-8.2-11.6-8.2-18.5c0-7.4,4.4-13.1,10.5-16.9l0.1-0.1c26.3-16.8,61.3-25.9,92.2-25.9h0.2
	c22.3,0.1,44.6,4.4,65.4,12.6c9.1,3.6,18.5,8.1,26.7,13.4c6.1,3.8,10.5,9.5,10.5,16.9c0,6.9-3.9,13.3-8.2,18.5
	c-21.4,25.8-48.6,47.5-76.8,65.5c-5.4,3.4-11.5,5.4-17.9,5.5C226.7,147.2,226.7,147.2,226.7,147.2L226.7,147.2z"/>
				<path id="color-2" fill="#1B91D0" d="M315.8,46.1L315.8,46.1c-0.1-0.1-36.5-25-89-25l0,0l0,0h-0.1l0,0c-52.5,0-88.9,24.9-89,25h0.1
	c-4.6,2.8-7.7,6.6-7.7,11.6c0,4.1,2,8.8,6.7,14.5c14.4,17.3,37.6,40.1,75.4,64.3c4.4,2.9,9.4,4.4,14.5,4.5l0,0c0,0,0,0,0.1,0l0,0
	l0,0c5.1-0.1,10.1-1.6,14.5-4.5c37.7-24.2,60.9-47,75.4-64.3c4.7-5.7,6.7-10.4,6.7-14.5C323.4,52.7,320.3,48.9,315.8,46.1
	L315.8,46.1z"/>
			</svg>
		</svg>
	</svg>

	<svg id="letter_text-wrapper" class="draggable" x="228.8" y="0" width="245px" height="245px" preserveAspectRatio="xMidYMin meet" >
		<text id="letter_text" data-name="letter_text" data-outline="true" data-text-max="1" class="letter_text text drag-target" x="0" y="128.1" stroke-miterlimit="10" fill="white" font-family="pro_block" stroke="#040404" stroke-width="3px" font-size="81.8px" text-anchor="middle" >S</text>
	</svg>

    <svg id="top_text-wrapper" class="draggable" preserveAspectRatio="xMidYMax meet">
    	<defs>
    		<path id="text_curve" stroke-width="1.5px" stroke="red" fill="none" d="M145.3,80.2L145.3,80.2c61.7-33.4,101.2-33.4,162.9,0l0,0"/>
    	</defs>
    	<text text-anchor="middle">
    		<textPath id="top_text" data-name="top_text" data-text-max="12" class="top_text text drag-target" xlink:href="#text_curve" fill="white"
					  font-family="heritage" stroke="white" stroke-width="0px" font-size="39px" text-anchor="middle" startOffset="50%" letter-spacing="1"
					  stroke-miterlimit="10" >SOUTH LAKE</textPath>
    	</text>
    </svg>
</svg>
