<svg version="1.1" id="layout" xmlns="http://www.w3.org/2000/svg" xmlns:xlink="http://www.w3.org/1999/xlink" x="0px" y="0px"
	 viewBox="120 12 211 145" xml:space="preserve" preserveAspectRatio="xMidYMid meet">
 <defs>
		<style type="text/css">
			<![CDATA[
			#layout svg {
					overflow: visible;
				}
				 @font-face {
							font-family: 'city_block';
							src: url('http://richardsoncap.magentostaging.com/customizer/fonts/cityb.woff') format('woff'),
								 url('http://richardsoncap.magentostaging.com/customizer/fonts/cityb.woff2') format('woff2');
							font-weight: bold;
							}
			]]>
		</style>
</defs>

    <svg id="graphic-1-wrapper" viewBox="10 19 310 134" x="66.5px" y="25.5px" width="330px" height="145px">
        <svg id="graphic-1" class="draggable" viewBox="68 0 285 40" x="0" y="0" width="100%" height="100%">
            <svg xmlns="http://www.w3.org/2000/svg" xmlns:xlink="http://www.w3.org/1999/xlink" version="1.1" id="graphic-1" x="62px" y="0px" width="330px" height="54px" viewBox="50 59 380 54"  preserveAspectRatio="xMidYMid meet" xml:space="preserve" data-colorable="mascot">
		<path id="graphic-1" fill-rule="evenodd" clip-rule="evenodd" fill="#BDBDC0" d="M275,58.4c-12.4-6.6-29.5-10.7-48.3-10.7
	s-35.8,4.1-48.3,10.7h-44.7c15.2-25,51.1-42.6,93-42.6s77.9,17.6,93,42.6H275z"/>
		</svg>
        </svg>
    </svg>
    <svg id="graphic-2-wrapper" viewBox="10 19 310 134" x="66.5px" y="25.5px" width="330px" height="145px">
        <svg id="graphic-2-wrapper" class="draggable" viewBox="68 0 285 40" x="0" y="0" width="100%" height="100%">
            <svg xmlns="http://www.w3.org/2000/svg" xmlns:xlink="http://www.w3.org/1999/xlink" version="1.1" id="graphic-2" x="62px" y="0px" width="330px" height="54px" viewBox="50 59 380 54"  preserveAspectRatio="xMidYMid meet" xml:space="preserve" data-colorable="mascot">
		<path id="graphic-2" fill-rule="evenodd" clip-rule="evenodd" fill="#005F9C" d="M226.8,122.4c18.8,0,35.8-4.1,48.3-10.7h44.7
	c-15.1,25-51.1,42.5-93,42.5s-77.8-17.5-93-42.5h44.7C190.9,118.3,208,122.4,226.8,122.4L226.8,122.4z"/>
		</svg>
        </svg>
    </svg>
<svg id="top_text-wrapper" class="draggable" preserveAspectRatio="xMidYMax meet" >
          <defs>
           <path id="text_curve" stroke-width="1.5px" stroke="black" fill="none" d="M165.1,58.4c14.4-11.6,37.4-18.3,61.7-18.3c24.4,0,47.3,6.8,61.7,18.3" />
          </defs>
        <text text-anchor="middle">
            <textPath id="top_text" data-name="top_text" data-text-max="8" class="top_text text drag-target"
                      xlink:href="#text_curve" fill="#005F9C" font-family="city_block" stroke="#DD2825"
                      stroke-width="0px" font-size="22px"  startOffset="50%" letter-spacing="2.5"
                      stroke-miterlimit="10">EST.1856</textPath></text>
    </svg>

    <svg id="main_text-wrapper" class="draggable" x="225" y="100" preserveAspectRatio="xMidYMin meet">
        <text id="main_text" data-name="main_text" data-text-max="10" class="main_text text drag-target" fill="#005F9C"
              font-family="city_block" stroke-width="0px" font-size="50.5px" text-anchor="middle" letter-spacing="2.5">MEMPHIS</text>
    </svg>

<svg id="bottom_text-wrapper" class="draggable" preserveAspectRatio="xMidYMax meet" >
          <defs>
           <path id="bottom_text_curve" stroke-width="1.5px" stroke="black" fill="none" d="M140.8,108.7c15.7,21.9,49.2,35.8,86,35.8s70.3-14,86-35.8" />
          </defs>
        <text text-anchor="middle">
            <textPath id="bottom_text" data-name="bottom_text" data-text-max="8" class="bottom_text text drag-target"
                      xlink:href="#bottom_text_curve" fill="#fff" font-family="city_block" stroke="#DD2825"
                      stroke-width="0px" font-size="22px"  startOffset="50%" letter-spacing="2.5"
                      stroke-miterlimit="10">TIGERS</textPath></text>
    </svg>

</svg>
