<svg version="1.1" id="layout" xmlns="http://www.w3.org/2000/svg" xmlns:xlink="http://www.w3.org/1999/xlink"
     data-colorable="special_text" viewBox="110 13 229 140" preserveAspectRatio="xMidYMid meet">
    <defs>
        <style type="text/css">
            <![CDATA[
				@font-face {
				    font-family: 'heritage';
				    src: url('http://richardsoncap.magentostaging.com/customizer/fonts/BebasKai-Regular.otf') format('otf'),
				    	url('http://richardsoncap.magentostaging.com/customizer/fonts/bebaskai-regular.woff2') format('woff2'),
				    	url('http://richardsoncap.magentostaging.com/customizer/fonts/bebaskai-regular.woff') format('woff');
				    font-weight: normal;
				    font-style: normal;
				}
				#layout svg {
					overflow: visible;
				}
			]]>
        </style>
    </defs>


    <svg id="top_text-wrapper" class="draggable" preserveAspectRatio="xMidYMax meet">
        <defs>
            <path id="top_text_curve" fill="none" stroke="magenta" stroke-width="1"
                  d="M121.8,83c8.5-36.6,201-37.9,209.8,0.3"/>
        </defs>
        <text class="drag-target font_adjust">
            <textPath id="top_text" data-text-max="7" data-name="top_text" class="top_text text"
                      xlink:href="#top_text_curve" startOffset="50%" fill="#0B162E" font-family="heritage"
                      font-size="55px" letter-spacing="0" text-anchor="middle">FAIRWOOD
            </textPath>
        </text>
    </svg>

    <svg id="bottom_text-wrapper" class="draggable" preserveAspectRatio="xMidYMax meet">
        <defs>
            <path id="bottom_text_curve" fill="none" stroke="magenta" stroke-width="1"
                  d="M73.4,87.8c10.2,84.2,302.7,81.2,306.7,0"/>
        </defs>
        <text class="drag-target font_adjust">
            <textPath id="bottom_text" data-text-max="10" data-name="bottom_text" class="bottom_text text"
                      xlink:href="#bottom_text_curve" startOffset="50%" fill="#0B162E" font-family="heritage"
                      font-size="55px" letter-spacing="0" text-anchor="middle">FALCONS
            </textPath>
        </text>
    </svg>

    <svg id="mascot-wrapper" viewBox="0 0 200 100" x="59px" y="76px" width="260px" height="146px">
        <svg id="mascot-1" class="draggable" viewBox="0 0 200 100" x="0" y="0" width="100%" height="100%">
            <svg xmlns="http://www.w3.org/2000/svg" xmlns:xlink="http://www.w3.org/1999/xlink" version="1.1" id="HAWK004" x="0px" y="0px" viewBox="59 112 260 75"  preserveAspectRatio="xMidYMid meet" xml:space="preserve" data-colorable="mascot">
			    <path fill-rule="evenodd" clip-rule="evenodd" fill="#BDBDC0" d="M279.6,70.8c0.6,0.7,1.1,1.4,1.7,2.1c2.4,4.2,5.6,8.2,6.1,13.1c0.7,6.3-1.9,11.8-6.2,16.3
		c-3.6,3.9-7.3,5.6-12.4,6.8l-4.7,1.1c0.7-1.9,3.8-8.4,1.9-9.6c-5.6,4.4-5.9,9.5-1.1,15.4l2.1,2.6l-3,1.4c-4.1,1.9-7.8,3.5-12.2,4.4
		c-6.7,1.3-13.2,0.9-19.5-1.5c-7.9-3-14.8-8.1-21.7-12.6c-15-9.9-22-11.3-39.8-11.3l-4.5-0.1l2.3-3.9c6.9-12.1,14.4-20.8,24.9-29.4
		c-4.2-2.4-8.5-4.7-12.7-7.2l-4.8-2.7l5.2-2c12.5-4.8,25.7-8.9,39-10.8c22.8-3.3,45.8-0.3,61.9,17.6l0.9,1l-0.8,3.9
		C281.6,67.3,280.8,69.2,279.6,70.8L279.6,70.8z"/>
	            <path fill-rule="evenodd" clip-rule="evenodd" fill="#0B162E" d="M198,65.2c-5.4-2.9-10.8-6-16.1-9.1c28.5-11,72.1-22.6,98.1,6.1l-0.6,2.6c-0.5,2.6-1.6,4.6-3.3,5.9
		c1.2,1.4,2.6,3.3,3.1,3.9c0,0,0-0.1-0.1-0.1c6.3,7.6,8.8,16.7,0.1,25.9c-3.3,3.5-6.5,5-11.1,6.2c1-2.8,1.3-4.7,1-6.9
		c-0.9-0.7-2.3-1.6-3.3-2.2c-8.5,5.6-8.9,13-3.1,20.3c-5,2.4-16.2,7.9-29.7,2.7c-7.6-2.8-14.7-8.1-21.1-12.3
		c-15.7-10.3-23.3-11.7-41.2-11.8C178,83.4,185.7,74.7,198,65.2L198,65.2z"/>
	            <path fill-rule="evenodd" clip-rule="evenodd" fill="#7BBEE8" d="M224.4,109.7c-6.3-3.9-12.6-8.8-19.8-12.7c3.2-1.4,6.5-2.4,9.9-3.1c-11-3.3-21.9-4.7-32.7-3.9
		c6.2-10.5,17.4-21.1,26.2-26c-4.5-2.4-9.1-4.8-13.5-7.3c24.1-8.2,49.9-12.5,71.1-0.2c2.2,1.3,4.5,2.8,6.5,4.5
		c1.6,1.2,1.3,1.1,2.2,2.1c-0.8,3.4-3.7,3.9-5.4,4.1c-0.1-1.4-0.9-2.9-2.7-4.2c1.9,7.8-9.6,9.1-13.7,6.8c-7.8-4.6-18-15.7-28.9-6.7
		c4.4-0.7,7.9-0.3,10.8,0.7c-1.9,3-3.6,6.8-2.1,11c-2.5-0.5-4.5-1-5.5-1.2c1.6,2.1,4.3,3.6,7.5,4.7c-8.3,3.1-8.8,19.3,3,16
		c2.9-0.8,5.4-1.4,8.1-1.6c-1.7,1.2-3.6,2.9-5.5,5.1c-1,1-1.9,2.2-2.6,3.3c1.7-0.4,3.5-0.7,5.4-0.9c-3,1.9-5.3,4.2-6.9,7
		c-1.3,2-3,3.3-5.2,3.8S226.3,110.9,224.4,109.7L224.4,109.7z"/>
	            <path fill-rule="evenodd" clip-rule="evenodd" fill="#F5831E" d="M238.6,83c11.8,0.7,34.6,2.7,33.7,18.8l-0.1,0.1c14-9.3,10.6-21,0.4-30.3c-1.8-1.6-4.5-1.5-6.1,0.1
		c-0.7,0.7-1.4,1.6-2.1,2.4c-1.8,2.3-3.3,5-4,8.1l-0.2,0.7h-0.7c-6.9-1.1-14-1.6-20.7-2c-1.3-0.1-2.7,0.3-3.7,1
		c-2.4,1.6-4.8,7.6-0.4,8.4c0.6,0.1,1.3,0.1,1.6-0.1c10.5-4.6,22.3-1.3,31.9,4.9c-3.3-5.6-11.6-8.7-22.7-9.8c-0.2,0-1.1-0.1-2.3-0.1
		c-2.2,0.3-4.2,0.9-6,1.8c-0.3,0.1-0.6,0.1-0.9-0.1c-0.2-0.2-0.3-0.6-0.2-0.9c0.3-0.7,0.7-1.5,1.2-2.2l-1.2-0.8l2.3,0.1l0,0H238.6
		L238.6,83z M270.7,78.3L270.7,78.3c0.3,0.4,0.5,1,0.5,1.4s-0.1,0.9-0.5,1.1c-5.4,3.2-6.9,1.3-2.4-3.2c0.3-0.3,0.7-0.4,1.2-0.2
		C269.8,77.5,270.3,77.8,270.7,78.3L270.7,78.3z"/>
	            <path fill-rule="evenodd" clip-rule="evenodd" fill="#FFFFFF" d="M249.3,72.7c-0.7,1-1.8,1.9-3.2,2.2c-2.6,0.7-5.2-0.7-5.7-2.9c-0.3-1.3,0.1-2.7,1.2-3.8L249.3,72.7z"/>
	            <path fill-rule="evenodd" clip-rule="evenodd" fill="#FFFFFF" d="M184.2,89.9c10.1-13.2,20.8-21.7,32.9-26.4c-7.1-2.5-11-5-12.7-6.2c18.7-5,31.2-6,39.8-4.1
		c21.7,4.8,21.9,18.9,1.2,11.7c2.5,1.7,4.9,3.4,7,4.7c4.1,2.4,15.6,1,13.7-6.8c1.8,1.3,2.6,2.8,2.7,4.2c1.7-0.2,4.6-0.7,5.4-4.1
		c-0.9-1-0.7-0.9-2.2-2.1c-2.1-1.7-4.3-3.2-6.5-4.5c-21.1-12.3-47-7.9-71.1,0.2c4.5,2.5,9.1,4.9,13.5,7.3c-8.8,5-20,15.5-26.2,26
		C182.6,89.9,183.4,89.9,184.2,89.9L184.2,89.9z"/>
			</svg>
        </svg>
    </svg>


</svg>
