<svg version="1.1" id="layout" xmlns="http://www.w3.org/2000/svg" xmlns:xlink="http://www.w3.org/1999/xlink"
     data-colorable="special_text" viewBox="36 -10 375 164" preserveAspectRatio="xMidYMid meet"
     style="background-color:#fff;">
    <defs>
        <style type="text/css">
            <![CDATA[
						#layout svg {
					overflow: visible;
				}
				 @font-face {
							font-family: 'machine';
							src: url('http://richardsoncap.magentostaging.com/customizer/fonts/machinen.woff2') format('woff2'),
								url('http://richardsoncap.magentostaging.com/customizer/fonts/machinen.woff') format('woff'),
								url('http://richardsoncap.magentostaging.com/customizer/fonts/machinen.woff') format('truetype');
							}
			]]>
        </style>
    </defs>

    <svg id="main_text-wrapper" class="draggable" preserveAspectRatio="xMidYMax meet" x="50.5px" y="5px" width="330px"
         height="120px" viewBox="50 21 330 104">
        <defs>
            <path id="text_curve" stroke-width="1.5px" stroke="red" fill="none"
                  d="M73.9,124.4c10.2-93.3,295.1-93.2,305.8,0"/>
        </defs>
        <text text-anchor="middle">
            <textPath id="main_text" data-name="main_text" data-text-max="8" class="main_text text drag-target"
                      xlink:href="#text_curve" fill="#040404" font-family="machine" stroke="#040404"
                      stroke-width="0px" font-size="87.9px" text-anchor="middle" startOffset="50%" letter-spacing="0"
                      stroke-miterlimit="10">FREMONT
            </textPath>
        </text>
    </svg>


    <svg id="mascot-wrapper" viewBox="10 19 310 134" x="66.5px" y="25.5px" width="330px" height="145px">
        <svg id="mascot-1" class="draggable" viewBox="68 0 285 40" x="0" y="0" width="100%" height="100%">
            <svg xmlns="http://www.w3.org/2000/svg" xmlns:xlink="http://www.w3.org/1999/xlink" version="1.1" id="mascot-1" x="62px" y="0px" width="330px" height="54px" viewBox="50 59 380 54"  preserveAspectRatio="xMidYMid meet" xml:space="preserve" data-colorable="mascot">
			 <path fill-rule="evenodd" clip-rule="evenodd" fill="#C16A27" d="M181.2,88c3.9-7.9,11.9-14.2,26.8-19.7c11.3-3.6,23.1-5.1,37-0.2c11.6,4.2,20.7,9.7,26.2,17.6
		c2.3,3.2,2.2,6.1,0,8.8c-7,8.4-15.4,14.1-26.2,17.5c-12.2,4.2-24.4,4.5-36.5,0c-11.4-4.1-20.3-10.2-26.7-18
		C180.6,92.1,180.4,90,181.2,88L181.2,88z"/>
        <path fill-rule="evenodd" clip-rule="evenodd" fill="#FFFFFF" d="M202.2,70.6c-0.2,1.7-0.5,3.5-0.7,5.2l-0.8,0.7l0.7,0.3l-0.1,1.3c-2.8,0.7-5.6,1.5-8.3,2.3l-0.7,0.3
		c0.2-1.7,0.4-3.5,0.6-5.2c1.4-0.9,2.9-1.8,4.5-2.6C199,72.1,200.5,71.3,202.2,70.6L202.2,70.6z M251.2,70.6c0.2,1.6,0.4,3.1,0.5,4.7
		l0.1,0.1l1.5,1.5l-1.4,0.5l0.1,0.8c2.9,0.7,5.8,1.5,8.7,2.4l0.2,0.1c-0.2-1.7-0.4-3.4-0.6-5.1c-1.5-0.9-3-1.9-4.7-2.7l-0.1-0.1h-0.1
		l0,0c-1.2-0.7-2.5-1.3-3.9-1.9L251.2,70.6z M252.3,81v0.7l0.8,0.7l-0.7,0.5c0.5,9,0.1,18-1.1,26.8c1.5-0.7,3-1.4,4.5-2.2
		c1.7-1,3.2-2,4.7-3c1.1-7.2,1.4-14.1,0.9-20.9c-0.5-0.2-0.9-0.2-1.4-0.4C257.4,82.4,254.8,81.6,252.3,81L252.3,81z M201.1,80.9
		c-0.6,9.5-0.3,19.1,1.1,28.6c-3.3-1.5-6.4-3.3-9.2-5.1c-1.1-7.2-1.3-14-0.8-20.7c0.5-0.2,1.1-0.5,1.7-0.6
		C196.3,82.3,198.7,81.6,201.1,80.9L201.1,80.9z"/>
        <path fill-rule="evenodd" clip-rule="evenodd" fill="#040404" d="M177.5,86.4c0.5-0.9,0.9-1.8,1.4-2.7c2.1-3.3,4.5-5.8,7.3-8.3L188,74c5.3-3.9,11-6.6,17.1-9
		c5.7-2.1,11.8-3.3,17.8-3.9c3.3-0.2,6.7-0.2,10,0.2c3.2,0.3,6.2,0.9,9.2,1.7c8.2,2.3,16.2,6,23.1,11c1.7,1.2,3.2,2.6,4.7,4
		c2.7,2.7,5.5,5.8,6.7,9.6c0.6,2.4,0.5,4.5-0.5,6.8c-1.1,2.3-2.8,4.2-4.5,6.1c-2.8,2.8-5.7,5.3-8.8,7.6c-0.9,0.6-1.7,1.2-2.6,1.8
		c-7.9,4.7-16.9,7.9-25.9,9.2c-2.9,0.4-5.7,0.5-8.6,0.5c-3.8-0.1-7.3-0.5-11-1.4c-9.1-2.1-17.7-6.1-25.3-11.4
		c-3.1-2.3-5.9-4.8-8.5-7.6l-1.4-1.6c-1.8-2.2-2.6-4.5-2.6-7.3C176.7,88.7,177,87.7,177.5,86.4L177.5,86.4z M183.7,83.9
		c3-1.2,6.2-2.4,9.4-3.5c3.4-1.1,7-2,10.4-2.8l-2.6-1.1l2-1.7c2-1.5,5.6-4.5,10.9-3.6c3.3,0.6,5.6-0.2,7.9-0.9c1.6-0.5,3.1-1,5-1.1
		c2.4-0.1,4.1,0.3,5.9,0.8c1.7,0.4,3.7,0.9,6.8,1c3.1-0.2,5.4,0.1,7.3,0.8c2,0.8,3.6,2,5.2,3.6l1.5,1.5l-2.5,1
		c3.3,0.8,6.7,1.7,9.9,2.7c3.1,1,6.1,2.1,9.1,3.3c-5.7-6.9-14.2-11.9-24.9-15.7c-13.8-4.8-25.7-3.3-37,0.2
		C195.7,72.8,188.1,77.8,183.7,83.9L183.7,83.9z M272.4,87.8c-4-1.7-8.2-3.3-12.5-4.6c-2.9-1-5.8-1.8-8.8-2.5l1.9,1.7l-1.3,1.1
		c-1.7,1.3-3.5,2.2-5.6,2.6c-2,0.4-4.4,0.2-7.1-0.8c-2.6-0.5-4.8,0-7,0.5c-1.8,0.4-3.6,0.8-5.5,0.7c-1.1,0-2.2-0.2-3.5-0.5
		c-2.6-0.5-5.9-1.2-8.8-0.1c-2,0.8-4,0.8-5.8,0.5c-2.6-0.5-4.8-1.7-5.9-2.6l-1.1-0.9l2.3-2.4c-3.2,0.8-6.5,1.7-9.8,2.7
		c-4.4,1.4-8.6,3.1-12.6,4.9h-0.1c-0.8,2-0.6,4.1,0.5,6.1c6.4,7.8,15.3,13.9,26.7,18c12.2,4.5,24.4,4.2,36.5,0
		c10.8-3.4,19.2-9.2,26.2-17.5C272.8,92.4,273.3,90.2,272.4,87.8L272.4,87.8z M212.1,76.6c0.7-0.1,1.3-0.2,2-0.2v-2.2h2.6v2
		c0.6-0.1,1.3-0.2,2-0.2v-2h2.6v1.9c0.6,0,1.3,0,2-0.1v-1.9h2.6v1.9c0.6,0,1.3,0,1.9,0h0.1v-1.9h2.6v1.9c0.7,0.1,1.4,0.1,2,0.1V74
		h2.6v2c0.2,0,0.5,0,0.7,0.1c0.5,0,0.8,0,1.3,0.1v-2h2.6v2.2c0.6,0.1,1.3,0.1,2,0.2v-1.9h2.6v2.9l4-1.6c-0.9-0.7-1.7-1.2-2.7-1.6
		c-1.6-0.6-3.6-0.8-6.2-0.7h-0.1c-3.5-0.1-5.6-0.6-7.5-1.1c-1.7-0.4-3.2-0.8-5.2-0.7c-1.4,0-2.8,0.5-4.2,1c-2.5,0.8-5.2,1.7-9.2,1
		c-2.9-0.6-5.4,0.6-7.1,1.8l3.4,1.4v-2.5h2.6V76.6z M244.3,78.5v3.7h-2.6v-3.1c-0.7-0.1-1.4-0.2-2-0.2v2.9h-2.6v-3.1
		c-0.7,0-1.3-0.1-2-0.2v3.1h-2.6v-3.2c-0.6-0.1-1.3-0.1-2-0.1v3.1h-2.6v-3.2c-0.6,0-1.3,0-2,0v3.2h-2.6v-3.1c-0.7,0-1.4,0-2,0.1v3.2
		h-2.6v-3.1c-0.3,0-0.5,0.1-0.8,0.1c-0.4,0-0.8,0.1-1.1,0.1v3.1h-2.6v-2.9c-0.7,0.1-1.3,0.2-2,0.2v3.1h-2.6v-3.9l-3.9,4.2
		c0.9,0.5,2,1,3.3,1.2c1.4,0.2,2.9,0.2,4.4-0.4c3.7-1.4,7.5-0.7,10.4,0c1.1,0.2,2.2,0.5,2.9,0.5c1.7,0.1,3.3-0.3,4.9-0.6
		c2.5-0.5,5-1.1,8.1-0.5h0.2c2.3,0.8,4.2,1,5.9,0.7c1.1-0.2,2-0.5,2.9-1.1L244.3,78.5z"/>
		</svg>
        </svg>
    </svg>

    <svg id="bottom_text-wrapper" class="draggable" x="150.5px" y="106.5px" width="330px" height="50px" viewBox="150 0 330 50"
         preserveAspectRatio="xMidYMin meet">
        <text id="bottom_text" data-name="bottom_text" data-text-max="12" class="bottom_text text drag-target" x="224"
              y="45" fill="#040404" font-family="machine" stroke="#040404" stroke-width="0px" font-size="37.9px"
              text-anchor="middle" letter-spacing="4">HUSKIES
        </text>
    </svg>
</svg>
