<svg version="1.1" id="layout" xmlns="http://www.w3.org/2000/svg" xmlns:xlink="http://www.w3.org/1999/xlink" data-colorable="special_text" viewBox="55 3 339 164" preserveAspectRatio="xMidYMid meet" style="background-color:#fff;">
	<defs>
		<style type="text/css">
			<![CDATA[
			#layout svg {
					overflow: visible;
				}
				@font-face {
					    font-family: 'condensed_block';
					    src: url('http://richardsoncap.magentostaging.com/customizer/fonts/aoalpha0.woff2') format('woff2'),
					         url('http://richardsoncap.magentostaging.com/customizer/fonts/aoalpha0.woff') format('woff');
					    font-weight: normal;
					    font-style: normal;
					}
				 @font-face {
							font-family:'square';
							src: 
								url('http://richardsoncap.magentostaging.com/customizer/fonts/sqr721be.ttf') format('truetype'),
								url('http://richardsoncap.magentostaging.com/customizer/fonts/sqr721be.woff') format('woff'),
								url('http://richardsoncap.magentostaging.com/customizer/fonts/sqr721be.ttf') format('truetype');
							font-weight: bold;
							}
			]]>
		</style>
	</defs>

	<svg id="main_text-wrapper" class="draggable" preserveAspectRatio="xMidYMin meet">
		<text id="main_text" data-name="main_text" data-text-max="12" class="main_text text drag-target" x="224.85" y="134" fill="#F5831E" font-family="condensed_block" stroke="#F5831E" stroke-width="0px" font-size="73.5px" text-anchor="middle" letter-spacing="2">HUSKIES</text>
	</svg>

	<svg id="bottom_text-wrapper" class="draggable" preserveAspectRatio="xMidYMin meet">
		<text id="bottom_text" data-name="bottom_text" data-text-max="12" class="bottom_text text drag-target"  x="225" y="163" fill="#F5831E" font-family="square" stroke="#F5831E" stroke-width="0px" font-size="26.34px" text-anchor="middle" letter-spacing="0">FOOTBALL</text>
	</svg>

	<svg id="mascot-wrapper" viewBox="60 4 334 70" x="122px" y="0" width="334px" height="70px">
		<svg id="mascot-1" class="draggable" viewBox="60 4 334 70" x="0" y="0" width="100%" height="100%">
			<svg xmlns="http://www.w3.org/2000/svg" xmlns:xlink="http://www.w3.org/1999/xlink" version="1.1" id="mascot-1" x="58px" y="12px" width="334px" height="70px" viewBox="60 4 334 70"  preserveAspectRatio="xMidYMid meet" xml:space="preserve" data-colorable="mascot">
				<path id="color-1" fill="#0B162E" style="fill-rule:evenodd;clip-rule:evenodd;" d="M190.999,28.807c1.74-0.326,3.371-0.761,5.002-1.196
		c0.435-1.74,0.761-3.588,1.087-5.328c2.175-0.326,4.241-0.544,6.307-0.761c-0.326,1.631-0.544,3.262-0.761,4.893
		c1.522-0.326,3.153-0.544,4.784-0.761c0.217-1.631,0.435-3.262,0.761-5.002c2.066-0.109,4.132-0.109,6.198-0.217
		c-0.217,1.522-0.435,3.045-0.544,4.567c1.522-0.109,3.153-0.109,4.784-0.217c0.109-1.522,0.217-3.153,0.435-4.676
		c2.066,0,4.132,0,6.198,0c-0.109,1.522-0.217,3.045-0.326,4.567c1.522,0,2.936,0,4.458,0c0.109,0,0.217,0,0.326,0
		c0-1.522,0.109-3.045,0.217-4.567c2.066,0,4.132,0,6.198,0c0,1.522-0.109,3.153-0.109,4.676c1.631,0.109,3.262,0.109,4.784,0.326
		c0-1.631,0-3.153,0-4.676c2.066,0.109,4.241,0.217,6.307,0.326c0,1.631,0.109,3.262,0.109,4.893
		c0.652,0.109,1.196,0.217,1.74,0.217c1.087,0.217,2.175,0.326,3.153,0.544c0-1.522-0.109-3.153-0.217-4.784
		c2.175,0.217,4.241,0.435,6.415,0.761c0.109,1.74,0.326,3.588,0.435,5.328c1.74,0.326,3.371,0.761,5.11,1.196
		c-0.217-1.631-0.435-3.153-0.544-4.784c2.175,0.326,4.458,0.761,6.633,1.196c0.435,3.045,0.87,6.198,1.196,9.242
		c0.435,3.045,0.87,6.198,1.196,9.242c-2.392-0.435-4.784-0.87-7.176-1.196c-0.109-1.305-0.217-2.501-0.326-3.806
		c-0.217-1.305-0.217-2.501-0.435-3.806c-1.74-0.435-3.479-0.87-5.11-1.196c0.109,1.087,0.109,2.283,0.217,3.479
		c0.109,1.196,0.217,2.392,0.326,3.588c-2.392-0.326-4.676-0.544-6.959-0.761c-0.109-1.305-0.109-2.501-0.217-3.806
		c-0.109-1.305-0.109-2.61-0.217-3.806c-1.631-0.326-3.371-0.544-5.002-0.761c0,1.196,0.109,2.501,0.109,3.697
		c0,1.305,0.109,2.501,0.109,3.806c-2.283-0.217-4.567-0.326-6.85-0.435c0-1.305,0-2.61,0-3.914s0-2.61,0-3.806
		c-1.631-0.217-3.262-0.217-4.893-0.326c0,1.305-0.109,2.501-0.109,3.806c0,1.305,0,2.61-0.109,3.806c-2.175,0-4.458,0-6.741,0
		c0.109-1.305,0.109-2.61,0.217-3.914c0.109-1.305,0.109-2.61,0.217-3.914c-1.631,0-3.262,0.109-4.893,0
		c-0.109,1.305-0.217,2.61-0.326,3.914s-0.217,2.61-0.217,3.914c-2.283,0-4.567,0.109-6.741,0.109
		c0.109-1.305,0.217-2.501,0.326-3.806c0.217-1.305,0.326-2.61,0.435-3.914c-1.631,0.109-3.262,0.217-4.893,0.326
		c-0.109,1.305-0.326,2.61-0.544,3.914c-0.109,1.305-0.326,2.61-0.435,3.914c-2.283,0.217-4.458,0.326-6.741,0.435
		c0.217-1.196,0.326-2.501,0.544-3.806c0.217-1.196,0.435-2.501,0.652-3.806c-0.761,0.109-1.414,0.217-2.175,0.326
		c-0.87,0.109-1.848,0.326-2.827,0.435c-0.217,1.305-0.544,2.61-0.761,3.914c-0.217,1.305-0.435,2.61-0.652,3.914
		c-2.283,0.326-4.567,0.544-6.85,0.87c0.217-1.196,0.544-2.501,0.761-3.697c0.217-1.196,0.544-2.392,0.761-3.697
		c-1.74,0.435-3.479,0.87-5.219,1.305c-0.217,1.305-0.544,2.61-0.87,3.914c-0.217,1.305-0.544,2.718-0.87,4.023
		c-2.283,0.326-4.676,0.87-7.068,1.305c0.87-3.262,1.631-6.415,2.501-9.568c0.761-3.262,1.522-6.415,2.392-9.568
		c2.175-0.435,4.349-0.87,6.415-1.196C191.76,25.654,191.433,27.176,190.999,28.807L190.999,28.807z M339.419,49.902
		c-7.611-4.676-15.44-9.134-23.378-13.265c2.936,6.307,5.219,13.483,6.85,21.094h-21.638c-2.392-11.526-6.089-22.725-10.982-32.62
		l-0.761-0.217c-0.326-0.109-0.652-0.217-1.087-0.435c-19.246-6.741-39.688-10.112-59.368-10.438c-0.87,0-1.631,0-2.392,0
		c-3.697,0.109-7.394,0.217-11.091,0.435c-17.506,1.087-34.903,4.349-52.409,10.656c-5.11,10.547-8.807,21.42-10.873,32.62h-21.747
		c1.522-7.068,3.914-14.027,6.741-20.877c-11.091,5.763-23.378,12.939-37.513,22.073c0-2.501,0-2.175,0-3.697
		c37.948-35.121,78.07-48.821,126.891-50.017c45.559-0.979,94.815,18.593,127.109,50.67v3.262
		C348.879,55.773,344.094,52.729,339.419,49.902L339.419,49.902z" />

			</svg>
		</svg>
	</svg>


</svg>
