<svg xmlns="http://www.w3.org/2000/svg" xmlns:xlink="http://www.w3.org/1999/xlink" version="1.1" id="layout" data-colorable="special_text" >
	<svg viewBox="0 0 221 145" y="3.5%">
		<defs>
			<style type="text/css">
				<![CDATA[
		 @font-face {
					font-family: 'city_block';
							src: url('http://richardsonsports.com/customizer/fonts/cityb.woff') format('woff');
					font-weight: bold;
					}
		@font-face {
				    font-family: 'heritage';
				    src: url('http://richardsonsports.com/customizer/fonts/bebaskai-regular.woff') format('woff');
				    font-weight: normal;
				    font-style: normal;
				}
					#layout svg {
					overflow: visible;
				}
		]]>
			</style>
		</defs>
		<svg id="letter_text-wrapper" class="draggable" preserveAspectRatio="xMidYMin meet" viewBox="0 0 190 102" x="0" y="2" width="190" height="82">
			<path id="color-2" class="drag-target color-2" stroke-width="5.5px" stroke="#0B162E" fill="#0B162E" d="M115.3,57.4c30,0,54.4,12.8,54.4,28.7c0,15.8-24.3,28.7-54.4,28.7s-54.4-12.9-54.4-28.7 C61.4,70.2,85.8,57.4,115.8,57.4L115.8,57.4z" />
			<path id="color-1" class="drag-target color-1" fill="#B82026" d="M115.3,57.4c30,0,54.4,12.8,54.4,28.7c0,15.8-24.3,28.7-54.4,28.7s-54.4-12.9-54.4-28.7 C61.4,70.2,85.8,57.4,115.8,57.4L115.8,57.4z" />
			<text id="letter_text" data-name="letter_text" data-text-max="1" class="letter_text text" x="115.3" y="107.5" text-anchor="middle" fill="#FFFFFF" font-family="city_block" font-size="62.7px" letter-spacing="0">T</text>
		</svg>
		<svg id="top_text-wrapper" class="draggable" preserveAspectRatio="xMidYMax meet" y="11" height="20">
			<defs>
				<path id="text_curve" stroke-width="1.0px" stroke="red" fill="none" d="M37.7,44c10.134-11.877,39.972-19.999,73.468-19.999 c32.469,0,61.612,7.632,72.563,19.002" />
			</defs>
			<!--FREMONT-->
			<text text-anchor="middle" class="drag-target font_adjust" >
				<textPath id="top_text" data-name="top_text" data-font-max="44.5" class="top_text text" xlink:href="#text_curve" startOffset="50%" fill="#0B162E" font-family="heritage" stroke="#0B162E" stroke-width="0px" font-size="44.5px" letter-spacing="0.3">FREMONT</textPath>
			</text>
		</svg>
		<svg id="bottom_text-wrapper" class="draggable" preserveAspectRatio="xMidYMax meet" y="21" height="20">
			<defs>
				<path id="bottom_text_curve" stroke-width="1.5px" stroke="cyan" fill="none" d="M45.6,105.5  c31, 12,  102,  11,  129, 0" />
			</defs>
			<!--TIGERS-->
			<text text-anchor="middle" class="drag-target font_adjust">
				<textPath id="bottom_text" data-name="bottom_text" data-font-max="41.1" class="bottom_text text" xlink:href="#bottom_text_curve" startOffset="50%" fill="#0B162E" font-family="heritage" stroke="#0B162E" stroke-width="0px" font-size="41.1px" letter-spacing="2.9">TIGERS</textPath>
			</text>
		</svg>

	</svg>
</svg>