<svg version="1.1" id="layout" xmlns="http://www.w3.org/2000/svg" xmlns:xlink="http://www.w3.org/1999/xlink"
     data-colorable="special_text" preserveAspectRatio="xMidYMid meet">
    <svg viewBox="0 0 339 168" y="3.5%" height="92%">
        <rect x="0" y="0" width="100%" height="100%" fill="none" stroke="green" />
        <defs>
            <style type="text/css">
                <![CDATA[
			#layout svg {
					overflow: visible;
				}
				@font-face {
	font-family: 'condensed_block';
	src: url('http://richardsonsports.com/customizer/fonts/aoalpha0.woff') format('woff');
	font-weight: bold;
					}
				 @font-face {
	font-family: 'square';
	src: url('http://richardsonsports.com/customizer/fonts/sqr721be.woff') format('woff');
	font-weight: normal;
	font-style: normal;
							}
			]]>
            </style>
        </defs>

        <svg class="draggable" viewBox="0 0 234 70" y="0" height="70">
            <path fill="#0B162E" id="color-1" class="drag-target color-1" d="M81.249 28.807c1.74-.326 3.371-.761 5.002-1.196.435-1.74.761-3.588 1.087-5.328 2.175-.326 4.241-.544 6.307-.761-.326 1.631-.544 3.262-.761 4.893 1.522-.326 3.153-.544 4.784-.761.217-1.631.435-3.262.761-5.002 2.066-.109 4.132-.109 6.198-.217-.217 1.522-.435 3.045-.544 4.567 1.522-.109 3.153-.109 4.784-.217.109-1.522.217-3.153.435-4.676h6.198l-.326 4.567h4.784c0-1.522.109-3.045.217-4.567h6.198c0 1.522-.109 3.153-.109 4.676 1.631.109 3.262.109 4.784.326v-4.676c2.066.109 4.241.217 6.307.326 0 1.631.109 3.262.109 4.893.652.109 1.196.217 1.74.217 1.087.217 2.175.326 3.153.544 0-1.522-.109-3.153-.217-4.784 2.175.217 4.241.435 6.415.761.109 1.74.326 3.588.435 5.328 1.74.326 3.371.761 5.11 1.196-.217-1.631-.435-3.153-.544-4.784 2.175.326 4.458.761 6.633 1.196.435 3.045.87 6.198 1.196 9.242.435 3.045.87 6.198 1.196 9.242-2.392-.435-4.784-.87-7.176-1.196-.109-1.305-.217-2.501-.326-3.806-.217-1.305-.217-2.501-.435-3.806-1.74-.435-3.479-.87-5.11-1.196.109 1.087.109 2.283.217 3.479l.326 3.588c-2.392-.326-4.676-.544-6.959-.761-.109-1.305-.109-2.501-.217-3.806-.109-1.305-.109-2.61-.217-3.806-1.631-.326-3.371-.544-5.002-.761 0 1.196.109 2.501.109 3.697 0 1.305.109 2.501.109 3.806-2.283-.217-4.567-.326-6.85-.435V31.089c-1.631-.217-3.262-.217-4.893-.326 0 1.305-.109 2.501-.109 3.806 0 1.305 0 2.61-.109 3.806h-6.741c.109-1.305.109-2.61.217-3.914.109-1.305.109-2.61.217-3.914-1.631 0-3.262.109-4.893 0l-.326 3.914c-.109 1.304-.217 2.61-.217 3.914-2.283 0-4.567.109-6.741.109.109-1.305.217-2.501.326-3.806.217-1.305.326-2.61.435-3.914l-4.893.326c-.109 1.305-.326 2.61-.544 3.914-.109 1.305-.326 2.61-.435 3.914-2.283.217-4.458.326-6.741.435.217-1.196.326-2.501.544-3.806.217-1.196.435-2.501.652-3.806-.761.109-1.414.217-2.175.326-.87.109-1.848.326-2.827.435-.217 1.305-.544 2.61-.761 3.914l-.652 3.914c-2.283.326-4.567.544-6.85.87.217-1.196.544-2.501.761-3.697.217-1.196.544-2.392.761-3.697l-5.219 1.305c-.217 1.305-.544 2.61-.87 3.914-.217 1.305-.544 2.718-.87 4.023-2.283.326-4.676.87-7.068 1.305.87-3.262 1.631-6.415 2.501-9.568.761-3.262 1.522-6.415 2.392-9.568 2.175-.435 4.349-.87 6.415-1.196-.327 1.633-.654 3.155-1.088 4.786zm148.42 21.095a379.15 379.15 0 0 0-23.378-13.265c2.936 6.307 5.219 13.483 6.85 21.094h-21.638c-2.392-11.526-6.089-22.725-10.982-32.62l-.761-.217c-.326-.109-.652-.217-1.087-.435-19.246-6.741-39.688-10.112-59.368-10.438h-2.392c-3.697.109-7.394.217-11.091.435-17.506 1.087-34.903 4.349-52.409 10.656-5.11 10.547-8.807 21.42-10.873 32.62H20.793c1.522-7.068 3.914-14.027 6.741-20.877C16.443 42.618 4.156 49.794-9.979 58.928v-3.697C27.969 20.11 68.091 6.41 116.912 5.214c45.559-.979 94.815 18.593 127.109 50.67v3.262c-4.892-3.373-9.677-6.417-14.352-9.244z"/>
        </svg>

        <svg id="main_text-wrapper" class="draggable" preserveAspectRatio="xMidYMin meet" y="134" height="106">
            <text id="main_text" data-name="main_text" data-text-max="12" class="main_text text drag-target scalable" x="50%"
                  fill="#F5831E" font-family="condensed_block" stroke="#F5831E" stroke-width="0px"
                  font-size="73.5px" data-font-max="73.5" text-anchor="middle" letter-spacing="2">HUSKIES</text>
        </svg>

        <svg id="bottom_text-wrapper" class="draggable" preserveAspectRatio="xMidYMin meet" y="163" height="30">
            <text id="bottom_text" data-name="bottom_text" data-text-max="12" class="bottom_text text drag-target scalable"
                  x="50%" fill="#F5831E" font-family="square" stroke="#F5831E" stroke-width="0px" font-size="26.34px"
                  data-font-max="26.4"
                  text-anchor="middle" letter-spacing="0">FOOTBALL</text>
        </svg>

    </svg>
</svg>
