<svg version="1.1" id="layout" xmlns="http://www.w3.org/2000/svg" xmlns:xlink="http://www.w3.org/1999/xlink"
     data-colorable="special_text" viewBox="0 0 250 140" preserveAspectRatio="xMidYMid meet">
    <svg viewBox="0 0 250 140" y="3.5%" height="92%">
        <defs>
            <style type="text/css">
                <![CDATA[
                    #layout svg {
                            overflow: visible;
                        }
                    @font-face {
                        font-family: 'serpentine';
                        src: url('http://richardsonsports.com/customizer/fonts/serpentine_richardson.woff') format('woff');
                        font-weight: normal;
                        font-style: normal;
                    }
			]]>
            </style>
        </defs>

            <svg id="graphic-1" class="draggable" x="0px" y="0px" width="250px" height="140px" viewBox="0 0 265 140" xmlns="http://www.w3.org/2000/svg" xmlns:xlink="http://www.w3.org/1999/xlink" version="1.1" preserveAspectRatio="xMidYMid meet" xml:space="preserve" data-colorable="mascot">
                 <path id="color-1" class="color-1" fill="#BDBDC0" stroke="#BDBDC0" stroke-width="0px" d="M147.6 0.9c-1-.6-2.3-.1-1.6 1.1 1.8 3.5 4.4 8.5 5.6 11.9 1.6 4.1 1.6 9.1-.3 19.7-2.3 12.7-6.1 33-6.1 33l16.6-41.9s1-1.4 3.1-.3c2 1 27.4 25.5 15.7 68.1-.1-.1 27.8-58.6-33-91.6zm-46.8 23.4c2-1 3.1.3 3.1.3l16.3 41.9s-3.3-19.7-5.9-33c-2.1-10.6-2-15.6-.3-19.7 1.3-3.3 3.8-8.4 5.6-11.9.7-1.2-.7-1.7-1.6-1.1-60.8 33-32.9 91.5-32.9 91.5-11.7-42.5 13.6-67 15.7-68zM126 51.5h14.4l.7-2.4s-2.6-1.5-6.2-1.8c.1-1.3.3-2.6.4-4.4H140.4l.6-2.3s-2-1.3-5.3-1.7c.2-1.7.3-2.6.4-4.5 0 0 4 .1 4.1.1l.6-2.3s-1.8-1-4.4-1.5c.1-1.5.2-2.5.2-4l3.4.1.6-2.2s-1.5-.9-3.8-1.4c.1-1.5.1-2.3.1-3.7 0 0 2.7.1 2.8.1l.6-2.1s-1.4-.8-3.5-1.2v-.8c-.1-.9-.2-1.8-.2-2.6l2.6.1.5-2s-1.4-.9-3.5-1.3c-.2-.9-.3-1.6-.3-2.4 0 0 2.9.1 3 .1l.5-1.9s-1.7-.9-4.2-1.3c-.1-.3-.1-.6-.2-.8h3.4l.5-1.7s-2.4-1.3-4.8-1.4h-1.8c-1.5.3-3.2.6-5 1.6l.6 1.5h3.4c-.1.2-.1.5-.2.8-1.4.3-2.8.8-4.3 1.5l.7 1.6 2.9-.1c-.1.8-.2 1.5-.3 2.5-1.2.3-2.4.8-3.7 1.5l.7 1.6 2.7-.1c-.1.9-.2 1.7-.3 2.6v.9c-1.2.3-2.4.8-3.6 1.5l.8 1.7h2.7c0 1.4.1 2.3.1 3.8-1.3.3-2.6.9-4 1.6l.9 1.9 3.3-.1c.1 1.5.1 2.6.3 4-1.5.3-3.1.9-4.6 1.8l.8 2 4-.1c.2 2 .3 2.9.4 4.6-1.7.3-3.6.9-5.5 2l.9 2h5c.2 1.8.3 3.2.4 4.4-2 .2-4.1.9-6.3 2.1l.9 2.1zm-35.2 48.4c2.9 4.8 4.9 7.9 8.5 11.7 4.9-7.9 11.6-20.4 33.3-21.2v-16c-27.2.2-39.7 20.4-41.8 25.5zm43.5-9.5c21.8.8 28.4 13.2 33.4 21.2 3.6-3.8 5.5-6.9 8.5-11.7-2-5-14.6-25.3-41.8-25.5v16zm2.3 44.5c-.9 0-1.6-.4-1.9-1.2-.2-.7-1.3-6.7-1.4-7.6v-.1.1c0-.1-.1-.1-.1-.1v.2c-.1.9-1.2 6.9-1.4 7.6-.3.8-.8 1.1-1.6 1.2h-.2c-4.1-.1-30.9-12.4-41.4-34.8 0 0 2 7.8 8.5 16.3 5.8 7.8 16.2 20.2 32.6 24.9 0 0 .1 0 .1.1.1 0 .7.2 1.5.2.7-.1 1.5-.3 2.1-1 1.1 1.5 3.3.9 3.4.9 16.5-4.7 27-17.2 32.9-25 6.4-8.5 8.5-16.3 8.5-16.3-10.7 22.3-37.5 34.6-41.6 34.6z"/>
			</svg>


        <svg id="main_text-wrapper" class="draggable" height="50" y="86" preserveAspectRatio="xMidYMin meet">
            <text id="main_text" data-name="main_text" data-text-max="12" class="main_text text drag-target scalable" x="50%" y="0" data-font-max="46.7"
                  fill="#48236E" font-family="serpentine" stroke-width="0px" font-size="46.7px" text-anchor="middle"
                  letter-spacing="1">VIKINGS</text>
        </svg>

        <svg id="bottom_text-wrapper" class="draggable" height="20" y="113" preserveAspectRatio="xMidYMin meet">
            <text id="bottom_text" data-name="bottom_text" data-text-max="12" class="bottom_text text drag-target scalable" x="50%" y="0" data-font-max="19.3"
                  fill="#48236E" font-family="serpentine" stroke-width="0px" font-size="19.3px" text-anchor="middle"
                  letter-spacing="0.5">FOOTBALL</text>
        </svg>
    </svg>
</svg>
