<svg version="1.1" id="layout" xmlns="http://www.w3.org/2000/svg" xmlns:xlink="http://www.w3.org/1999/xlink" data-colorable="special_text"  viewBox="115 15 190 142" preserveAspectRatio="xMidYMid meet" style="background-color:#fff;">
	<defs>
		<style type="text/css">
			<![CDATA[
		 @font-face {
					font-family: 'city_block';
							src: url('http://richardsonsports.com/customizer/fonts/cityb.woff') format('woff');
					font-weight: bold;
					}
		@font-face {
				    font-family: 'heritage';
				    src: url('http://richardsonsports.com/customizer/fonts/bebaskai-regular.woff') format('woff');
				    font-weight: normal;
				    font-style: normal;
				}
					#layout svg {
					overflow: visible;
				}
		]]>
		</style>
	</defs>
	<svg id="top_text-wrapper" class="draggable" preserveAspectRatio="xMidYMax meet" x="68px" y="25px" viewBox="132.5 25 190 142"  width="300px" height="135px">
		<defs>
			<path id="text_curve" stroke-width="1.5px" stroke="red" fill="none" d="M149,69.058c10.134-11.877,39.972-19.999,73.468-19.999 c32.469,0,61.612,7.632,72.563,19.002"/>
		</defs>
		<text text-anchor="middle">
			<textPath id="top_text" data-name="top_text" data-text-max="10" class="top_text text drag-target" xlink:href="#text_curve" startOffset="50%" fill="#0B162E" font-family="heritage" stroke="#0B162E" stroke-width="0px" font-size="47.2px" letter-spacing="0.3">FREMONT</textPath>
		</text>
	</svg>
	<svg id="bottom_text-wrapper" class="draggable" preserveAspectRatio="xMidYMax meet" x="106px" y="7px" viewBox="132.5 5 190 142"  width="218px" height="123px">
		<defs>
			<path id="bottom_text_curve" stroke-width="1.5px" stroke="red" fill="none" d="M131.272,131.355c14.324,14.872,52.441,24.854,94.908,24.854 c43.811,0,82.838-10.624,96.092-26.158"/>
		</defs>
		<text text-anchor="middle">
			<textPath id="bottom_text" data-name="bottom_text" data-text-max="8" class="bottom_text text drag-target" xlink:href="#bottom_text_curve" startOffset="50%" fill="#0B162E" font-family="heritage" stroke="#0B162E" stroke-width="0px" font-size="47.1px" letter-spacing="3.5">TIGERS</textPath>
		</text>
	</svg>

	<svg id="letter_text-wrapper" class="draggable" preserveAspectRatio="xMidYMin meet"  viewBox="56 1 190 102" x="55px" y="13px" width="190px" height="82px">
		<path id="color-2" class="drag-target" fill="#0B162E" d="M226.8,54.6 229.6,54.7 232.4,54.7 235.2,55 238,55.2 240.8,55.5 243.4,56 246,56.4 248.5,56.9
		251,57.5 253.5,58.1 255.8,58.9 258.1,59.7 260.3,60.5 262.5,61.4 264.5,62.3 266.5,63.3 268.4,64.3 270.3,65.5 271.9,66.6
		273.6,67.8 275.1,69.1 276.5,70.4 277.8,71.8 279,73.1 280.2,74.6 281.1,76.1 281.9,77.7 282.7,79.2 283.2,80.9 283.6,82.6
		283.9,84.3 283.9,86 283.9,87.8 283.6,89.5 283.2,91.2 282.7,92.8 281.9,94.4 281.1,96 280.2,97.5 279,98.9 277.8,100.3
		276.5,101.7 275.1,103 273.6,104.3 271.9,105.4 270.3,106.6 268.4,107.7 266.5,108.7 264.5,109.7 262.5,110.7 260.3,111.6
		258.1,112.4 255.8,113.2 253.5,113.9 251,114.6 248.5,115.2 246,115.7 243.4,116.1 240.8,116.5 238,116.9 235.2,117.1 232.4,117.3
		229.6,117.4 226.8,117.4 223.9,117.4 221,117.3 218.3,117.1 215.5,116.9 212.8,116.5 210.1,116.1 207.6,115.7 205,115.2
		202.5,114.6 200.1,113.9 197.7,113.2 195.5,112.4 193.2,111.6 191.1,110.7 189,109.7 187,108.7 185.1,107.7 183.3,106.6
		181.6,105.4 180,104.3 178.5,103 177,101.7 175.7,100.3 174.5,98.9 173.4,97.5 172.5,96 171.6,94.4 170.9,92.8 170.4,91.2
		169.9,89.5 169.7,87.8 169.6,86 169.7,84.3 169.9,82.6 170.4,80.9 170.9,79.2 171.6,77.7 172.5,76.1 173.4,74.6 174.5,73.1
		175.7,71.8 177,70.4 178.5,69.1 180,67.8 181.6,66.6 183.3,65.5 185.1,64.3 187,63.3 189,62.3 191.1,61.4 193.2,60.5 195.5,59.7
		197.7,58.9 200.1,58.1 202.5,57.5 205,56.9 207.6,56.4 210.1,56 212.8,55.5 215.5,55.2 218.3,55 221,54.7 223.9,54.7z"/>
		<path id="color-1" class="drag-target color-1" fill="#B82026" d="M226.8,57.4c30,0,54.4,12.8,54.4,28.7c0,15.8-24.3,28.7-54.4,28.7s-54.4-12.9-54.4-28.7 C172.4,70.2,196.8,57.4,226.8,57.4L226.8,57.4z"/>
		<text id="letter_text" data-name="letter_text" data-text-max="1" class="letter_text text drag-target" x="226.8" y="107.5" text-anchor="middle" fill="#FFFFFF" font-family="city_block" font-size="62.7px" letter-spacing="0">T</text>
	</svg>
</svg>
