<svg version="1.1" id="layout" xmlns="http://www.w3.org/2000/svg" xmlns:xlink="http://www.w3.org/1999/xlink" data-colorable="special_text" preserveAspectRatio="xMidYMid meet">
    <svg viewBox="0 0 238.5 124" y="3.5%">
        <defs>
            <style type="text/css">
                <![CDATA[
				@font-face {
	font-family: 'heritage';
	src: url('http://richardsonsports.com/customizer/fonts/bebaskai-regular.woff') format('woff');
	font-weight: normal;
	font-style: normal;
}
				#layout svg {
					overflow: visible;
				}
			]]>
            </style>
        </defs>

        <svg id="top_text-wrapper" class="draggable" y="0" height="50px" preserveAspectRatio="xMidYMin meet">
            <defs>
                <path id="top_text_curve" fill="none" stroke="magenta" stroke-width="1" d="M13.8,55c8.5-36.6,201-37.9,209.8,0.3"/>
            </defs>
            <text text-anchor="middle" class="drag-target font_adjust">
                <textPath id="top_text" data-name="top_text" data-text-max="7" class="top_text text drag-target"
                          xlink:href="#top_text_curve" fill="#0B162E" font-family="heritage"
                          font-size="55px" letter-spacing="0" data-font-max="55" startOffset="50%" text-anchor="middle">FAIRWOOD</textPath>
            </text>
        </svg>

        <svg id="bottom_text-wrapper" class="draggable" y="0" height="50px" preserveAspectRatio="xMidYMax meet">
            <defs>
                <path id="bottom_text_curve" fill="none" stroke="magenta" stroke-width="1" d="M-34.6,60c10.2,84.2,302.7,81.2,306.7,0"/>
            </defs>
            <text class="drag-target font_adjust">
                <textPath id="bottom_text" data-text-max="10" data-name="bottom_text" class="bottom_text text drag-target"
                          xlink:href="#bottom_text_curve" startOffset="50%" fill="#0B162E" font-family="heritage"
                          font-size="55px" letter-spacing="0" data-font-max="55" text-anchor="middle">FALCONS</textPath>
            </text>
        </svg>

        <svg id="mascot" class="draggable" viewBox="0 0 220 75" x="0" y="39px" height="75px">
            <path fill="#BDBDC0" d="M163.3 3.8c.6.7 1.1 1.4 1.7 2.1 2.4 4.2 5.6 8.2 6.1 13.1.7 6.3-1.9 11.8-6.2 16.3-3.6 3.9-7.3 5.6-12.4 6.8l-4.7 1.1c.7-1.9 3.8-8.4 1.9-9.6-5.6 4.4-5.9 9.5-1.1 15.4l2.1 2.6-3 1.4c-4.1 1.9-7.8 3.5-12.2 4.4-6.7 1.3-13.2.9-19.5-1.5-7.9-3-14.8-8.1-21.7-12.6-15-9.9-22-11.3-39.8-11.3l-4.5-.1 2.3-3.9C59.2 15.9 66.7 7.2 77.2-1.4 73-3.8 68.7-6.1 64.5-8.6l-4.8-2.7 5.2-2c12.5-4.8 25.7-8.9 39-10.8 22.8-3.3 45.8-.3 61.9 17.6l.9 1-.8 3.9c-.6 1.9-1.4 3.8-2.6 5.4z"/>
            <path fill="#0B162E" d="M81.7-1.8c-5.4-2.9-10.8-6-16.1-9.1 28.5-11 72.1-22.6 98.1 6.1l-.6 2.6c-.5 2.6-1.6 4.6-3.3 5.9 1.2 1.4 2.6 3.3 3.1 3.9 0 0 0-.1-.1-.1 6.3 7.6 8.8 16.7.1 25.9-3.3 3.5-6.5 5-11.1 6.2 1-2.8 1.3-4.7 1-6.9-.9-.7-2.3-1.6-3.3-2.2-8.5 5.6-8.9 13-3.1 20.3-5 2.4-16.2 7.9-29.7 2.7-7.6-2.8-14.7-8.1-21.1-12.3-15.7-10.3-23.3-11.7-41.2-11.8 7.3-13 15-21.7 27.3-31.2z"/>
            <path fill="#7BBEE8" d="M108.1 42.7c-6.3-3.9-12.6-8.8-19.8-12.7 3.2-1.4 6.5-2.4 9.9-3.1-11-3.3-21.9-4.7-32.7-3.9C71.7 12.5 82.9 1.9 91.7-3c-4.5-2.4-9.1-4.8-13.5-7.3 24.1-8.2 49.9-12.5 71.1-.2 2.2 1.3 4.5 2.8 6.5 4.5 1.6 1.2 1.3 1.1 2.2 2.1-.8 3.4-3.7 3.9-5.4 4.1-.1-1.4-.9-2.9-2.7-4.2 1.9 7.8-9.6 9.1-13.7 6.8-7.8-4.6-18-15.7-28.9-6.7 4.4-.7 7.9-.3 10.8.7-1.9 3-3.6 6.8-2.1 11-2.5-.5-4.5-1-5.5-1.2 1.6 2.1 4.3 3.6 7.5 4.7-8.3 3.1-8.8 19.3 3 16 2.9-.8 5.4-1.4 8.1-1.6-1.7 1.2-3.6 2.9-5.5 5.1-1 1-1.9 2.2-2.6 3.3 1.7-.4 3.5-.7 5.4-.9-3 1.9-5.3 4.2-6.9 7-1.3 2-3 3.3-5.2 3.8s-4.3-.1-6.2-1.3z"/>
            <path fill="#F5831E" d="M122.3 16c11.8.7 34.6 2.7 33.7 18.8l-.1.1c14-9.3 10.6-21 .4-30.3-1.8-1.6-4.5-1.5-6.1.1-.7.7-1.4 1.6-2.1 2.4-1.8 2.3-3.3 5-4 8.1l-.2.7h-.7c-6.9-1.1-14-1.6-20.7-2-1.3-.1-2.7.3-3.7 1-2.4 1.6-4.8 7.6-.4 8.4.6.1 1.3.1 1.6-.1 10.5-4.6 22.3-1.3 31.9 4.9-3.3-5.6-11.6-8.7-22.7-9.8-.2 0-1.1-.1-2.3-.1-2.2.3-4.2.9-6 1.8-.3.1-.6.1-.9-.1-.2-.2-.3-.6-.2-.9.3-.7.7-1.5 1.2-2.2l-1.2-.8 2.3.1h.2V16zm32.1-4.7c.3.4.5 1 .5 1.4s-.1.9-.5 1.1c-5.4 3.2-6.9 1.3-2.4-3.2.3-.3.7-.4 1.2-.2.3.1.8.4 1.2.9z"/>
            <path fill="#FFF" d="M133 5.7c-.7 1-1.8 1.9-3.2 2.2-2.6.7-5.2-.7-5.7-2.9-.3-1.3.1-2.7 1.2-3.8l7.7 4.5z"/>
            <path fill="#FFF" d="M67.9 22.9C78 9.7 88.7 1.2 100.8-3.5c-7.1-2.5-11-5-12.7-6.2 18.7-5 31.2-6 39.8-4.1 21.7 4.8 21.9 18.9 1.2 11.7 2.5 1.7 4.9 3.4 7 4.7 4.1 2.4 15.6 1 13.7-6.8 1.8 1.3 2.6 2.8 2.7 4.2 1.7-.2 4.6-.7 5.4-4.1-.9-1-.7-.9-2.2-2.1-2.1-1.7-4.3-3.2-6.5-4.5-21.1-12.3-47-7.9-71.1.2 4.5 2.5 9.1 4.9 13.5 7.3-8.8 5-20 15.5-26.2 26 .9.1 1.7.1 2.5.1z"/>
        </svg>
    </svg>
</svg>
